<svg version="1.0" xmlns="http://www.w3.org/2000/svg" width="1191.000000pt" height="842.000000pt" viewBox="0 0 1191.000000 842.000000" preserveAspectRatio="xMidYMid meet">

<g transform="translate(0.000000,842.000000) scale(0.100000,-0.100000)" fill="#FFFFFF" stroke="none">
<path d="M2218 5051 c-149 -59 -242 -181 -257 -338 -13 -133 -14 -953 -1
-1024 25 -138 105 -244 227 -302 l68 -32 1145 0 1145 0 58 29 c109 56 192 161
217 276 8 39 11 206 8 585 l-3 530 -32 66 c-40 80 -120 159 -200 197 l-58 27
-1135 2 c-1082 2 -1137 1 -1182 -16z m291 -159 c58 -35 86 -89 86 -163 -1
-106 -79 -180 -192 -181 -173 -2 -249 230 -111 336 68 51 141 54 217 8z m1138
23 c49 -21 71 -41 96 -90 18 -36 20 -57 18 -207 0 -96 3 -168 8 -168 5 0 105
99 222 220 138 143 228 227 254 240 125 61 275 -24 275 -155 0 -73 -26 -109
-184 -257 -83 -79 -152 -147 -154 -153 -1 -5 41 -71 94 -145 217 -302 243
-339 267 -381 14 -24 31 -65 37 -90 40 -159 -129 -272 -287 -194 -61 31 -57
26 -247 317 l-148 228 -63 -57 -63 -56 -4 -156 c-3 -137 -6 -161 -26 -198 -42
-80 -142 -121 -228 -93 -51 16 -112 75 -124 120 -6 20 -10 217 -10 473 l0 437
-65 0 -65 0 0 -439 c0 -286 -4 -450 -11 -468 -14 -38 -67 -92 -106 -109 -41
-18 -115 -18 -156 0 -39 17 -92 71 -106 109 -7 18 -11 182 -11 468 l0 439
-130 0 -130 0 0 -442 c0 -430 -1 -443 -21 -486 -56 -115 -226 -137 -316 -40
-52 56 -53 64 -53 543 l0 446 38 -30 c101 -82 241 -78 330 9 54 51 73 91 79
160 6 67 -8 117 -49 178 l-29 42 516 0 c441 0 521 -2 552 -15z" data-index="0"></path>
<path d="M5120 4997 c-44 -15 -49 -41 -16 -72 24 -22 26 -31 27 -107 3 -206 0
-231 -29 -261 l-27 -29 24 -19 c19 -15 39 -19 105 -19 146 0 194 29 136 81
l-30 28 0 151 0 152 31 29 c56 52 18 79 -109 78 -42 0 -93 -5 -112 -12z" data-index="1"></path>
<path d="M5434 4995 c-49 -39 -72 -145 -35 -165 32 -17 42 -12 88 38 43 46 44
46 59 27 13 -17 14 -42 9 -150 -3 -71 -8 -137 -11 -146 -3 -9 -18 -22 -34 -29
-42 -17 -39 -47 5 -66 44 -18 219 -19 255 -1 35 18 39 54 6 67 -39 15 -46 40
-46 177 0 100 3 134 15 149 15 19 15 18 35 -6 49 -61 60 -70 79 -70 52 0 67
73 29 141 -12 22 -24 39 -27 40 -45 7 -417 2 -427 -6z" data-index="2"></path>
<path d="M5984 5001 c-63 -15 -68 -30 -26 -74 l27 -28 0 -154 c0 -145 -1 -155
-22 -177 -55 -58 -13 -82 129 -76 98 5 128 16 128 46 0 9 -12 26 -26 37 -25
20 -26 26 -31 145 -6 138 5 203 37 220 31 16 25 46 -11 59 -35 12 -157 13
-205 2z" data-index="3"></path>
<path d="M6295 5003 c-49 -12 -60 -51 -22 -75 21 -15 22 -21 22 -176 0 -153
-1 -162 -22 -184 -28 -30 -29 -54 -4 -68 25 -13 191 -13 225 0 31 12 34 40 6
65 -13 12 -20 31 -20 57 0 62 29 51 107 -42 l67 -81 99 3 c84 3 102 6 111 21
9 16 4 24 -33 55 -61 51 -211 229 -211 250 0 10 19 37 43 60 32 31 51 42 74
42 29 0 63 21 63 38 -1 29 -24 37 -110 41 -112 4 -144 -11 -135 -62 5 -26 0
-40 -26 -75 -17 -24 -36 -41 -43 -39 -21 7 -19 68 4 99 25 34 19 63 -13 72
-26 7 -153 6 -182 -1z" data-index="4"></path>
<path d="M5216 4266 c-53 -20 -104 -72 -117 -121 -25 -92 40 -168 182 -214 20
-6 44 -20 54 -31 16 -17 15 -20 -4 -39 -41 -41 -123 -17 -168 48 -29 42 -55
57 -74 45 -15 -9 -5 -93 16 -133 20 -40 90 -61 201 -61 70 0 89 4 135 28 88
46 121 129 82 209 -20 42 -55 65 -143 94 -78 26 -90 34 -90 65 0 17 7 25 25
30 38 9 71 -3 114 -41 21 -19 47 -35 58 -35 42 0 56 47 29 99 -22 41 -42 54
-89 57 -23 1 -71 5 -107 8 -45 4 -77 2 -104 -8z" data-index="5"></path>
<path d="M5756 4264 c-63 -20 -149 -104 -165 -160 -39 -140 20 -270 148 -327
62 -27 187 -21 254 13 159 80 187 270 62 408 -66 74 -186 100 -299 66z m112
-109 c39 -32 71 -111 78 -188 5 -54 3 -65 -15 -84 -33 -34 -75 -30 -104 10
-35 47 -67 140 -67 197 0 41 4 52 26 69 34 27 46 26 82 -4z" data-index="6"></path>
<path d="M6210 4267 c-48 -16 -54 -53 -12 -68 26 -9 30 -16 36 -62 3 -29 6
-105 6 -169 l0 -117 -30 -23 c-33 -24 -39 -54 -12 -59 9 -2 102 -4 206 -4
l189 0 19 25 c22 30 33 88 24 124 -5 19 -13 26 -31 26 -15 0 -25 -6 -25 -15 0
-28 -53 -75 -91 -81 -29 -5 -41 -2 -58 15 -19 19 -21 32 -21 171 0 154 0 153
45 185 26 18 10 47 -31 56 -49 11 -177 8 -214 -4z" data-index="7"></path>
<path d="M6685 4273 c-50 -13 -58 -44 -20 -79 24 -22 25 -27 25 -156 0 -165
14 -202 86 -244 40 -24 62 -29 136 -32 108 -5 163 9 217 55 52 44 61 78 61
240 0 130 0 133 25 149 57 37 18 74 -80 74 -30 0 -65 -4 -79 -10 -32 -12 -34
-45 -3 -61 12 -7 25 -17 29 -23 4 -6 8 -64 8 -129 0 -131 -12 -171 -56 -187
-42 -16 -99 -12 -127 10 -46 36 -49 65 -38 291 1 9 12 21 26 27 28 13 33 43 9
63 -17 14 -180 23 -219 12z" data-index="8"></path>
<path d="M7302 4252 c-26 -25 -52 -81 -52 -111 0 -25 26 -51 52 -51 11 0 37
19 58 41 59 65 70 52 70 -74 0 -158 -7 -196 -41 -216 -18 -10 -29 -24 -29 -38
0 -33 55 -46 184 -41 91 2 110 6 121 21 18 24 12 38 -25 59 l-31 17 3 153 c3
150 3 153 26 156 12 2 22 -1 22 -7 0 -21 53 -71 76 -71 56 0 67 82 20 151
l-22 32 -205 1 c-199 1 -205 0 -227 -22z" data-index="9"></path>
<path d="M7860 4267 c-55 -14 -63 -41 -25 -77 25 -23 25 -25 25 -179 l0 -155
-27 -29 -28 -29 24 -19 c19 -16 38 -19 115 -18 105 1 135 8 150 32 9 15 5 23
-22 45 l-32 27 0 153 0 154 30 28 c19 18 28 34 24 44 -13 34 -143 46 -234 23z" data-index="10"></path>
<path d="M8306 4264 c-63 -20 -149 -104 -165 -160 -51 -185 69 -347 256 -345
73 0 121 13 175 47 105 67 141 202 83 319 -62 128 -203 183 -349 139z m112
-109 c39 -32 71 -111 78 -188 5 -54 3 -65 -15 -84 -51 -53 -116 -9 -150 101
-29 93 -28 140 4 171 30 31 46 31 83 0z" data-index="11"></path>
<path d="M8748 4268 c-37 -13 -38 -49 -3 -68 35 -19 40 -44 40 -203 l0 -139
-27 -20 c-35 -24 -35 -43 -3 -64 28 -18 133 -21 165 -4 25 14 26 52 1 67 -39
24 -40 163 -1 163 10 0 75 -51 144 -114 146 -134 158 -142 180 -120 9 8 17 22
17 30 1 8 3 19 4 24 1 6 3 87 4 181 l1 171 30 26 c17 15 30 32 30 39 0 24 -44
43 -102 43 -104 0 -136 -31 -83 -80 22 -21 25 -32 23 -75 -2 -36 -7 -51 -19
-53 -9 -1 -64 40 -122 92 -59 53 -116 100 -126 106 -24 13 -117 12 -153 -2z" data-index="12"></path>
<path d="M9473 4255 c-63 -32 -94 -72 -100 -129 -9 -77 51 -149 149 -181 70
-23 98 -41 98 -65 0 -27 -44 -43 -90 -35 -25 5 -50 22 -87 62 -58 62 -83 65
-83 11 0 -119 54 -158 217 -159 127 -1 210 47 234 134 24 90 -30 161 -151 198
-77 23 -106 49 -89 81 15 28 69 23 117 -11 22 -16 43 -34 47 -40 11 -19 54
-12 66 10 8 17 7 31 -6 64 -21 55 -36 68 -88 71 -23 1 -73 5 -112 9 -63 6 -75
4 -122 -20z" data-index="13"></path>
<path d="M7678 3505 c3 -62 7 -85 17 -85 14 0 22 65 17 133 -2 27 -8 37 -20
37 -15 0 -17 -11 -14 -85z" data-index="14"></path>
<path d="M8340 3575 c7 -9 10 -40 8 -85 -2 -57 0 -70 12 -70 11 0 15 11 13 48
0 26 -1 64 -2 85 -1 31 -5 37 -22 37 -18 0 -19 -3 -9 -15z" data-index="15"></path>
<path d="M8928 3505 c3 -62 7 -85 17 -85 14 0 22 65 17 133 -2 27 -8 37 -20
37 -15 0 -17 -11 -14 -85z" data-index="16"></path>
<path d="M9360 3575 c7 -9 10 -40 8 -85 -2 -57 0 -70 12 -70 12 0 14 15 12 85
-3 78 -5 85 -24 85 -17 0 -18 -3 -8 -15z" data-index="17"></path>
<path d="M5165 3500 c0 -73 2 -80 20 -80 18 0 20 7 20 80 0 73 -2 80 -20 80
-18 0 -20 -7 -20 -80z" data-index="18"></path>
<path d="M5233 3569 c24 -14 21 -55 -5 -73 -15 -11 -18 -16 -7 -16 49 0 79 68
40 90 -26 13 -52 13 -28 -1z" data-index="19"></path>
<path d="M5862 3569 c2 -6 8 -10 13 -10 5 0 11 4 13 10 2 6 -4 11 -13 11 -9 0
-15 -5 -13 -11z" data-index="20"></path>
<path d="M6275 3500 c0 -77 1 -80 23 -80 19 0 21 3 12 19 -5 11 -10 29 -10 41
0 17 5 21 28 18 30 -3 42 -38 22 -64 -15 -17 -6 -18 21 -4 24 13 25 55 2 69
-15 9 -15 12 -5 19 23 15 10 57 -17 60 -23 4 -23 3 -8 -13 21 -20 21 -29 2
-45 -25 -21 -48 -4 -41 30 4 24 2 30 -12 30 -15 0 -17 -11 -17 -80z" data-index="21"></path>
<path d="M6682 3569 c2 -6 8 -10 13 -10 5 0 11 4 13 10 2 6 -4 11 -13 11 -9 0
-15 -5 -13 -11z" data-index="22"></path>
<path d="M7500 3570 c0 -5 7 -7 15 -4 8 4 15 8 15 10 0 2 -7 4 -15 4 -8 0 -15
-4 -15 -10z" data-index="23"></path>
<path d="M7555 3500 c0 -78 1 -80 24 -80 19 0 21 3 11 15 -7 9 -10 38 -8 80 2
53 0 65 -12 65 -12 0 -15 -16 -15 -80z" data-index="24"></path>
<path d="M7625 3570 c3 -5 8 -10 11 -10 2 0 4 5 4 10 0 6 -5 10 -11 10 -5 0
-7 -4 -4 -10z" data-index="25"></path>
<path d="M8540 3563 c0 -10 4 -14 8 -8 4 6 11 13 16 18 5 4 2 7 -7 7 -10 0
-17 -8 -17 -17z" data-index="26"></path>
<path d="M8595 3500 c0 -78 1 -80 24 -80 19 0 21 3 11 15 -7 9 -10 38 -8 80 2
53 0 65 -12 65 -12 0 -15 -16 -15 -80z" data-index="27"></path>
<path d="M8665 3570 c3 -5 8 -10 11 -10 2 0 4 5 4 10 0 6 -5 10 -11 10 -5 0
-7 -4 -4 -10z" data-index="28"></path>
<path d="M5317 3512 c-28 -31 -14 -92 20 -92 13 0 14 3 5 12 -7 7 -12 26 -12
43 0 17 5 36 12 43 7 7 8 12 2 12 -6 0 -18 -8 -27 -18z" data-index="29"></path>
<path d="M5370 3515 c7 -8 10 -32 8 -55 -4 -42 0 -48 20 -28 20 20 15 76 -7
88 -28 14 -36 13 -21 -5z" data-index="30"></path>
<path d="M5438 3518 c5 -7 16 -32 23 -55 6 -24 15 -43 19 -43 11 0 20 39 10
45 -13 8 -18 54 -6 59 6 2 -4 5 -23 5 -26 1 -31 -2 -23 -11z" data-index="31"></path>
<path d="M5512 3506 c-14 -32 -15 -39 -3 -32 5 3 14 -8 21 -24 12 -28 30 -41
30 -21 0 5 3 18 7 28 3 10 2 15 -3 10 -5 -5 -16 8 -24 29 l-16 36 -12 -26z" data-index="32"></path>
<path d="M5560 3526 c0 -9 30 -14 35 -6 4 6 -3 10 -14 10 -12 0 -21 -2 -21 -4z" data-index="33"></path>
<path d="M5637 3512 c-20 -22 -22 -63 -5 -80 14 -14 64 -16 72 -3 4 5 -2 7
-12 4 -19 -4 -52 20 -52 38 0 5 16 9 35 9 28 0 35 4 35 19 0 10 -7 22 -16 25
-24 9 -29 7 -16 -6 19 -19 14 -28 -13 -28 -23 0 -24 2 -15 20 13 25 8 26 -13
2z" data-index="34"></path>
<path d="M5749 3528 c0 -2 -1 -27 -2 -56 -2 -42 1 -52 14 -52 13 0 18 11 21
45 4 54 1 65 -18 65 -8 0 -14 -1 -15 -2z" data-index="35"></path>
<path d="M5797 3524 c-8 -8 1 -24 14 -24 5 0 9 7 9 15 0 15 -12 20 -23 9z" data-index="36"></path>
<path d="M5865 3518 c-2 -7 -5 -32 -7 -55 -3 -36 -1 -43 14 -43 15 0 18 9 18
55 0 50 -14 75 -25 43z" data-index="37"></path>
<path d="M5939 3528 c0 -2 -1 -27 -2 -56 -2 -41 1 -52 13 -52 12 0 15 8 12 35
-2 19 1 41 7 49 9 10 8 15 -5 20 -17 6 -24 7 -25 4z" data-index="38"></path>
<path d="M5990 3521 c0 -5 5 -13 11 -17 6 -3 9 -24 7 -45 -3 -30 0 -39 12 -39
24 0 12 103 -12 108 -10 2 -18 -1 -18 -7z" data-index="39"></path>
<path d="M6080 3515 c-10 -12 -10 -22 -2 -39 8 -17 7 -27 -1 -35 -15 -15 7
-31 45 -31 32 0 44 -15 27 -36 -10 -12 -9 -13 4 -8 19 7 33 43 20 54 -4 5 -21
10 -38 12 -29 3 -30 5 -30 51 0 50 -5 56 -25 32z" data-index="40"></path>
<path d="M6130 3515 c7 -8 10 -24 7 -36 -3 -13 -1 -19 6 -16 17 5 21 48 5 58
-21 14 -32 10 -18 -6z" data-index="41"></path>
<path d="M6432 3478 c3 -51 4 -53 33 -56 25 -2 27 -1 13 8 -13 8 -18 24 -18
55 0 34 -4 45 -16 45 -12 0 -14 -10 -12 -52z" data-index="42"></path>
<path d="M6500 3475 c0 -54 1 -55 28 -54 15 0 21 3 15 6 -8 3 -13 24 -13 54 0
37 -4 49 -15 49 -12 0 -15 -13 -15 -55z" data-index="43"></path>
<path d="M6583 3523 c-22 -8 -14 -42 12 -59 14 -9 25 -23 25 -31 0 -8 5 -11
10 -8 18 11 10 43 -16 60 -15 10 -23 22 -20 31 3 8 4 14 3 13 -1 0 -8 -3 -14
-6z" data-index="44"></path>
<path d="M6616 3523 c5 -5 12 -12 16 -18 4 -6 8 -2 8 8 0 9 -7 17 -17 17 -9 0
-12 -3 -7 -7z" data-index="45"></path>
<path d="M6685 3518 c-2 -7 -5 -32 -7 -55 -3 -38 -1 -43 17 -43 18 0 20 5 17
55 -4 51 -17 72 -27 43z" data-index="46"></path>
<path d="M6765 3522 c-5 -4 -10 -28 -10 -55 0 -38 3 -47 18 -47 14 0 17 9 17
45 0 25 0 48 1 52 1 11 -14 14 -26 5z" data-index="47"></path>
<path d="M6810 3520 c0 -5 5 -10 10 -10 6 0 10 -20 10 -45 0 -33 4 -45 15 -45
19 0 21 80 3 98 -15 15 -38 16 -38 2z" data-index="48"></path>
<path d="M6924 3522 c-23 -15 -34 -50 -24 -76 8 -21 16 -26 45 -26 19 0 35 4
35 10 0 5 -6 7 -14 4 -14 -5 -46 20 -46 37 0 5 16 9 35 9 36 0 46 15 23 38
-18 18 -27 15 -21 -8 4 -15 0 -20 -16 -20 -19 0 -20 3 -11 20 12 22 11 24 -6
12z" data-index="49"></path>
<path d="M7027 3523 c-15 -14 -6 -43 19 -59 15 -10 23 -23 19 -31 -3 -9 0 -13
7 -11 25 8 20 44 -7 62 -16 10 -24 23 -21 32 6 14 -5 19 -17 7z" data-index="50"></path>
<path d="M7060 3526 c0 -2 7 -9 15 -16 13 -11 14 -10 9 4 -5 14 -24 23 -24 12z" data-index="51"></path>
<path d="M7133 3523 c-22 -8 -14 -42 12 -59 14 -9 25 -23 25 -31 0 -8 5 -11
10 -8 19 11 10 44 -16 61 -14 9 -23 23 -20 30 3 8 4 14 3 13 -1 0 -8 -3 -14
-6z" data-index="52"></path>
<path d="M7166 3523 c5 -5 12 -12 16 -18 4 -6 8 -2 8 8 0 9 -7 17 -17 17 -9 0
-12 -3 -7 -7z" data-index="53"></path>
<path d="M7237 3512 c-20 -22 -22 -63 -5 -80 14 -14 64 -16 73 -2 3 6 -1 7
-10 4 -18 -7 -45 12 -45 32 0 9 11 14 31 14 26 0 30 3 27 22 -2 12 -9 23 -17
26 -9 3 -11 -2 -6 -17 5 -17 2 -21 -14 -21 -23 0 -29 25 -8 33 7 3 7 6 1 6 -6
1 -18 -7 -27 -17z" data-index="54"></path>
<path d="M7352 3518 c-19 -19 -14 -35 18 -58 17 -12 27 -27 24 -33 -4 -7 1 -5
10 4 21 19 13 43 -21 58 -16 7 -23 17 -19 26 7 18 4 19 -12 3z" data-index="55"></path>
<path d="M7395 3520 c3 -5 8 -10 11 -10 2 0 4 5 4 10 0 6 -5 10 -11 10 -5 0
-7 -4 -4 -10z" data-index="56"></path>
<path d="M7738 3518 c7 -7 12 -31 12 -55 0 -32 4 -43 15 -43 11 0 15 11 15 39
0 53 -8 71 -33 71 -16 0 -18 -3 -9 -12z" data-index="57"></path>
<path d="M7835 3522 c-5 -4 -10 -28 -10 -55 0 -37 3 -47 16 -47 13 0 18 11 21
45 5 62 -2 76 -27 57z" data-index="58"></path>
<path d="M7877 3524 c-8 -8 1 -24 14 -24 5 0 9 7 9 15 0 15 -12 20 -23 9z" data-index="59"></path>
<path d="M7940 3510 c-24 -24 -26 -53 -4 -74 24 -25 33 -19 21 13 -8 22 -8 36
1 55 14 31 9 33 -18 6z" data-index="60"></path>
<path d="M7990 3520 c10 -6 15 -24 14 -55 -1 -43 0 -45 18 -29 10 10 18 24 18
33 0 25 -29 61 -48 61 -15 0 -15 -2 -2 -10z" data-index="61"></path>
<path d="M8070 3491 c0 -56 8 -71 39 -71 22 1 24 2 9 11 -13 7 -18 23 -18 54
0 33 -4 45 -15 45 -11 0 -15 -11 -15 -39z" data-index="62"></path>
<path d="M8140 3475 c0 -54 1 -55 28 -54 15 0 21 3 15 6 -8 3 -13 24 -13 54 0
37 -4 49 -15 49 -12 0 -15 -13 -15 -55z" data-index="63"></path>
<path d="M8222 3521 c-17 -10 -12 -53 7 -59 9 -3 11 2 6 17 -4 13 -1 28 5 36
14 16 3 20 -18 6z" data-index="64"></path>
<path d="M8268 3495 c3 -29 7 -33 18 -24 25 20 12 59 -20 59 -1 0 0 -16 2 -35z" data-index="65"></path>
<path d="M8404 3511 c13 -14 17 -31 14 -56 -3 -27 0 -35 12 -35 13 0 15 9 10
53 -4 46 -8 52 -30 56 -25 3 -25 3 -6 -18z" data-index="66"></path>
<path d="M8714 3522 c-23 -15 -34 -50 -24 -76 7 -20 17 -26 39 -26 16 0 33 4
36 10 3 5 0 7 -8 4 -15 -5 -47 20 -47 37 0 5 16 9 35 9 36 0 46 15 23 38 -18
18 -27 15 -21 -8 4 -15 0 -20 -16 -20 -19 0 -20 3 -11 20 12 22 11 24 -6 12z" data-index="67"></path>
<path d="M8865 3520 c27 -12 35 -12 35 0 0 6 -12 10 -27 9 -25 0 -26 -1 -8 -9z" data-index="68"></path>
<path d="M8988 3518 c7 -7 12 -31 12 -55 0 -32 4 -43 15 -43 11 0 15 11 15 39
0 53 -8 71 -33 71 -16 0 -18 -3 -9 -12z" data-index="69"></path>
<path d="M9085 3522 c-5 -4 -10 -28 -10 -55 0 -38 3 -47 18 -47 14 0 17 9 17
45 0 25 0 48 1 52 1 11 -14 14 -26 5z" data-index="70"></path>
<path d="M9130 3520 c0 -5 5 -10 10 -10 6 0 10 -20 10 -45 0 -33 4 -45 15 -45
11 0 15 11 15 39 0 22 -3 46 -6 55 -7 17 -44 22 -44 6z" data-index="71"></path>
<path d="M9242 3523 c-25 -10 -34 -53 -17 -79 22 -33 35 -30 25 6 -11 39 -2
70 21 70 22 0 34 -38 25 -75 -8 -30 9 -33 24 -6 30 56 -18 108 -78 84z" data-index="72"></path>
<path d="M9447 3512 c-27 -30 -15 -92 19 -92 11 0 12 4 4 19 -14 26 -13 64 2
79 7 7 8 12 2 12 -6 0 -18 -8 -27 -18z" data-index="73"></path>
<path d="M9500 3515 c7 -8 10 -32 8 -55 -4 -42 0 -48 20 -28 20 20 15 76 -7
88 -28 14 -36 13 -21 -5z" data-index="74"></path>
<path d="M9580 3509 c-9 -15 -8 -24 1 -35 18 -22 24 -17 24 21 0 40 -9 45 -25
14z" data-index="75"></path>
<path d="M9629 3521 c8 -6 12 -19 9 -35 -6 -29 10 -36 18 -8 3 9 9 24 13 32 6
12 1 16 -23 17 -21 2 -26 0 -17 -6z" data-index="76"></path>
<path d="M9727 3479 c24 -50 25 -99 3 -99 -6 0 -10 -4 -10 -10 0 -5 4 -10 9
-10 8 0 18 20 49 99 3 9 1 12 -5 8 -12 -7 -36 47 -26 57 4 3 -5 6 -19 6 l-25
0 24 -51z" data-index="77"></path>
<path d="M9787 3514 c3 -9 9 -12 12 -7 3 4 10 11 15 16 5 4 0 7 -12 7 -15 0
-20 -4 -15 -16z" data-index="78"></path>
<path d="M8822 3508 c-7 -7 -12 -24 -12 -38 0 -14 5 -31 12 -38 14 -14 64 -16
72 -3 4 5 -3 7 -13 4 -25 -6 -55 38 -46 67 7 23 4 25 -13 8z" data-index="79"></path>
<path d="M7016 3435 c4 -8 11 -15 16 -15 6 0 5 6 -2 15 -7 8 -14 15 -16 15 -2
0 -1 -7 2 -15z" data-index="80"></path>
<path d="M8212 3443 c-10 -4 -10 -8 -1 -19 9 -11 9 -17 -1 -29 -14 -17 -5 -35
17 -35 12 0 13 3 3 15 -17 20 -4 35 31 35 22 0 29 -5 29 -20 0 -11 -5 -20 -12
-20 -6 0 -8 -3 -5 -6 11 -12 37 18 37 42 0 20 -5 24 -33 24 -18 0 -37 4 -42 9
-6 5 -16 6 -23 4z" data-index="81"></path>
<path d="M9577 3443 c-13 -13 16 -33 49 -33 28 0 34 -4 34 -21 0 -11 5 -17 10
-14 6 3 10 17 10 31 0 21 -5 24 -34 24 -19 0 -38 5 -41 10 -7 12 -19 13 -28 3z" data-index="82"></path>
<path d="M6570 3430 c0 -5 5 -10 11 -10 5 0 7 5 4 10 -3 6 -8 10 -11 10 -2 0
-4 -4 -4 -10z" data-index="83"></path>
<path d="M7120 3430 c0 -5 5 -10 11 -10 5 0 7 5 4 10 -3 6 -8 10 -11 10 -2 0
-4 -4 -4 -10z" data-index="84"></path>
<path d="M7340 3430 c0 -5 5 -10 11 -10 5 0 7 5 4 10 -3 6 -8 10 -11 10 -2 0
-4 -4 -4 -10z" data-index="85"></path>
<path d="M6070 3385 c0 -8 9 -19 20 -25 14 -7 20 -7 20 0 0 5 -4 10 -10 10 -5
0 -10 7 -10 15 0 8 -4 15 -10 15 -5 0 -10 -7 -10 -15z" data-index="86"></path>
<path d="M9575 3390 c-8 -14 9 -34 23 -29 7 3 6 11 -3 22 -9 13 -15 15 -20 7z" data-index="87"></path>
</g>
</svg>